<?xml version="1.0" encoding="iso-8859-1"?>
<!-- Uploaded to: SVG Repo, www.svgrepo.com, Generator: SVG Repo Mixer Tools -->
<svg version="1.1" id="Layer_1" xmlns="http://www.w3.org/2000/svg" xmlns:xlink="http://www.w3.org/1999/xlink" 
	 viewBox="0 0 496.2 496.2" xml:space="preserve">
<path style="fill:#32BEA6;" d="M496.2,248.1C496.2,111.1,385.1,0,248.1,0S0,111.1,0,248.1s111.1,248.1,248.1,248.1
	S496.2,385.1,496.2,248.1z"/>
<polygon style="fill:#433DC9;" points="192.8,225.5 328.5,245.8 328.5,138.4 192.8,102.9 "/>
<polygon style="fill:#0C0C0C;" points="104,406.5 200.2,406.5 192.6,387.9 122.6,387.9 "/>
<polygon style="fill:#242328;" points="349.6,406.5 200.2,406.5 192.6,387.9 331.9,387.9 "/>
<polygon style="fill:#0C0C0C;" points="192.8,73.7 164,78.8 151.3,73.7 126,73.7 126,388.5 192.8,388.5 "/>
<g>
	<rect x="122.6" y="199.9" style="fill:#1E1D22;" width="28.7" height="188.5"/>
	<rect x="164" y="199.9" style="fill:#1E1D22;" width="28.7" height="188.5"/>
</g>
<polygon style="fill:#2F2E35;" points="192.8,199.9 331.9,220.2 331.9,388.5 192.8,388.5 "/>
<g>
	<rect x="122.6" y="73.7" style="fill:#1E1D22;" width="28.7" height="122.6"/>
	<rect x="164" y="73.7" style="fill:#1E1D22;" width="28.7" height="122.6"/>
</g>
<polygon style="fill:#2F2E35;" points="192.8,196.3 331.9,216.6 331.9,109.2 192.8,73.7 "/>
<rect x="171.6" y="351.7" style="fill:#131316;" width="12.7" height="27.9"/>
<path style="fill:#45484F;" d="M428.2,336.4c-8.6-79.5-26.5-93.8-26.5-93.8s-4.6-0.6-13-0.6s-13.8,0.6-13.8,0.6l-2.6,2.2l-45.2,0.3
	l-45.2-0.3l-2.6-2.2c0,0-5.4-0.6-13.8-0.6s-13,0.6-13,0.6S234.6,257,226,336.4c0,0-1.3,23.3,15.3,26.5c0,0,18.5,6.1,29.4-23.6
	l6.7-16.9c0,0,2.2-4.8,9.3-3.8h38.9h3h38.9c7-1,9.3,3.8,9.3,3.8l6.7,16.9c10.9,29.7,29.4,23.6,29.4,23.6
	C429.5,359.7,428.2,336.4,428.2,336.4z"/>
<circle style="fill:#2B2B2D;" cx="295.3" cy="305.7" r="18"/>
<circle style="fill:#717380;" cx="295.3" cy="302.9" r="18"/>
<path style="fill:#636268;" d="M253.6,242.3v-1.6c0,0,5.3-3.7,13-3.5c0,0,9.1,0.2,11.4,2.3v2.8H253.6z"/>
<polygon style="fill:#ABADBA;" points="253.6,242.3 253.6,240.8 278,239.6 278,242.3 "/>
<polygon style="fill:#8E909B;" points="261.8,240.4 269.3,240 269.5,242.3 262,242.3 "/>
<circle cx="264.6" cy="275.2" r="23.1"/>
<g>
	<path style="fill:#1B1C1E;" d="M269.5,267.5c0,1.5-4,5.2-4.9,5.2c-1,0-4.9-3.7-4.9-5.2v-5.7c0-1.5,1.2-2.7,2.7-2.7h4.4
		c1.5,0,2.7,1.2,2.7,2.7L269.5,267.5L269.5,267.5z"/>
	<path style="fill:#1B1C1E;" d="M259.6,282.6c0-1.5,4-5.2,4.9-5.2s4.9,3.7,4.9,5.2v5.7c0,1.5-1.2,2.7-2.7,2.7h-4.4
		c-1.5,0-2.7-1.2-2.7-2.7L259.6,282.6L259.6,282.6z"/>
	<path style="fill:#1B1C1E;" d="M272.2,280c-1.5,0-5.2-4-5.2-4.9c0-1,3.7-4.9,5.2-4.9h5.7c1.5,0,2.7,1.2,2.7,2.7v4.4
		c0,1.5-1.2,2.7-2.7,2.7L272.2,280L272.2,280z"/>
</g>
<path style="fill:#3B3C3D;" d="M267,275c0,0.6,1.5,2.4,2.9,3.7v-7.3C268.4,272.6,267,274.4,267,275z"/>
<path style="fill:#1B1C1E;" d="M257,270.1c1.5,0,5.2,4,5.2,4.9s-3.7,4.9-5.2,4.9h-5.7c-1.5,0-2.7-1.2-2.7-2.7v-4.4
	c0-1.5,1.2-2.7,2.7-2.7L257,270.1L257,270.1z"/>
<g>
	<path style="fill:#3B3C3D;" d="M262.2,275c0-0.6-1.5-2.4-2.9-3.7v7.3C260.7,277.5,262.2,275.6,262.2,275z"/>
	<path style="fill:#3B3C3D;" d="M264.6,277.4c-0.6,0-2.4,1.5-3.7,2.9h7.3C267,278.9,265.2,277.4,264.6,277.4z"/>
	<path style="fill:#3B3C3D;" d="M264.6,272.6c0.6,0,2.4-1.5,3.7-2.9H261C262.2,271.2,264,272.6,264.6,272.6z"/>
	<path style="fill:#3B3C3D;" d="M285.9,275l-2.9-2.6c-0.1-0.1-0.2-0.1-0.3,0c-0.1,0-0.2,0.1-0.2,0.3v5.2c0,0.1,0.1,0.2,0.2,0.3h0.1
		c0.1,0,0.1,0,0.2-0.1l2.9-2.6c0.1-0.1,0.1-0.1,0.1-0.2C286,275.1,286,275,285.9,275z"/>
	<path style="fill:#3B3C3D;" d="M243.4,275.4l2.9,2.6c0.1,0.1,0.2,0.1,0.3,0c0.1,0,0.2-0.1,0.2-0.3v-5.2c0-0.1-0.1-0.2-0.2-0.3h-0.1
		c-0.1,0-0.1,0-0.2,0.1l-2.9,2.6c-0.1,0.1-0.1,0.1-0.1,0.2C243.3,275.2,243.3,275.3,243.4,275.4z"/>
	<path style="fill:#3B3C3D;" d="M264.4,253.9l-2.6,2.9c-0.1,0.1-0.1,0.2,0,0.3s0.1,0.2,0.3,0.2h5.2c0.1,0,0.2-0.1,0.3-0.2V257
		c0-0.1,0-0.1-0.1-0.2l-2.6-2.9c-0.1-0.1-0.1-0.1-0.2-0.1S264.5,253.8,264.4,253.9z"/>
	<path style="fill:#3B3C3D;" d="M264.8,296.5l2.6-2.9c0.1-0.1,0.1-0.2,0-0.3c0-0.1-0.1-0.2-0.3-0.2h-5.2c-0.1,0-0.2,0.1-0.3,0.2v0.1
		c0,0.1,0,0.1,0.1,0.2l2.6,2.9c0.1,0.1,0.1,0.1,0.2,0.1S264.8,296.5,264.8,296.5z"/>
</g>
<circle cx="295.3" cy="302.9" r="12.8"/>
<circle style="fill:#5C5E6A;" cx="295.3" cy="302.9" r="11.6"/>
<circle style="fill:#4F5159;" cx="295.3" cy="302.9" r="8.3"/>
<circle style="fill:#5C5E6A;" cx="295.3" cy="302.9" r="6.7"/>
<path style="fill:#5F6266;" d="M226.1,336.4c0,0-1.3,23.3,15.3,26.5c0,0,12.9,4.2,23.4-11.6c0,0-12-0.8-21.9-5.3
	s-16.8-10.4-16.8-10.4C226.1,335.9,226.1,336.1,226.1,336.4z"/>
<circle style="fill:#2B2B2D;" cx="358.9" cy="305.7" r="18"/>
<circle style="fill:#717380;" cx="358.9" cy="302.9" r="18"/>
<path style="fill:#636268;" d="M400.6,242.3v-1.6c0,0-5.3-3.7-13-3.5c0,0-9.1,0.2-11.4,2.3v2.8H400.6z"/>
<polygon style="fill:#ABADBA;" points="400.6,242.3 400.6,240.8 376.3,239.6 376.3,242.3 "/>
<polygon style="fill:#8E909B;" points="392.4,240.4 384.9,240 384.8,242.3 392.3,242.3 "/>
<circle cx="389.6" cy="275.2" r="23.1"/>
<circle cx="358.9" cy="302.9" r="12.8"/>
<circle style="fill:#5C5E6A;" cx="358.9" cy="302.9" r="11.6"/>
<circle style="fill:#4F5159;" cx="358.9" cy="302.9" r="8.3"/>
<circle style="fill:#5C5E6A;" cx="358.9" cy="302.9" r="6.7"/>
<path style="fill:#5F6266;" d="M428.2,336.4c0,0,1.3,23.3-15.3,26.5c0,0-12.9,4.2-23.4-11.6c0,0,12-0.8,21.9-5.3
	s16.8-10.4,16.8-10.4C428.1,335.9,428.2,336.1,428.2,336.4z"/>
<path style="fill:#181819;" d="M298.6,282.4h58.5c2.1,0,3.8-1.7,3.8-3.8V245l-33.8,0.1l-32.3-0.2v33.6
	C294.8,280.6,296.5,282.4,298.6,282.4z"/>
<path style="fill:#2B2B2D;" d="M300,280.3h55.7c2,0,3.6-1.6,3.6-3.6v-31.8l-32.2,0.2l-30.7-0.2v31.8
	C296.4,278.7,298,280.3,300,280.3z"/>
<circle style="fill:#2B2D30;" cx="327.2" cy="304.3" r="5.3"/>
<g>
	<circle style="fill:#25292C;" cx="390.7" cy="261.1" r="6.4"/>
	<circle style="fill:#25292C;" cx="390.7" cy="290.7" r="6.4"/>
	<circle style="fill:#25292C;" cx="405.4" cy="275.9" r="6.4"/>
	<circle style="fill:#25292C;" cx="375.9" cy="275.9" r="6.4"/>
</g>
<path style="fill:#08B5AF;" d="M395.1,263.8h-8.8c-0.1,0-0.3-0.1-0.3-0.2c-0.1-0.1-0.1-0.3,0-0.4l4.4-7.3c0.1-0.1,0.2-0.2,0.3-0.2
	l0,0c0.1,0,0.3,0.1,0.3,0.2l4.5,7.3c0.1,0.1,0.1,0.3,0,0.4S395.3,263.8,395.1,263.8z M387,263h7.4l-3.8-6.2L387,263z"/>
<path style="fill:#F78D99;" d="M405.4,280.4c-2.6,0-4.7-2.1-4.7-4.7s2.1-4.7,4.7-4.7s4.7,2.1,4.7,4.7S408,280.4,405.4,280.4z
	 M405.4,271.9c-2.1,0-3.9,1.7-3.9,3.9s1.7,3.9,3.9,3.9s3.9-1.7,3.9-3.9S407.6,271.9,405.4,271.9z"/>
<path style="fill:#A4BAF6;" d="M391.2,290.7l3.4-3.2c0.2-0.2,0.2-0.4,0-0.6s-0.4-0.2-0.6,0l-3.5,3.3l-3.5-3.3
	c-0.2-0.2-0.4-0.1-0.6,0c-0.2,0.2-0.1,0.4,0,0.6l3.4,3.2l-3.4,3.2c-0.2,0.2-0.2,0.4,0,0.6c0.1,0.1,0.2,0.1,0.3,0.1
	c0.1,0,0.2,0,0.3-0.1l3.5-3.3l3.5,3.3c0.1,0.1,0.2,0.1,0.3,0.1c0.1,0,0.2,0,0.3-0.1c0.2-0.2,0.1-0.4,0-0.6L391.2,290.7z"/>
<path style="fill:#EFA8EA;" d="M379.6,271.6h-7.3c-0.2,0-0.4,0.2-0.4,0.4v7.1c0,0.2,0.2,0.4,0.4,0.4h7.3c0.2,0,0.4-0.2,0.4-0.4V272
	C380,271.8,379.8,271.6,379.6,271.6z M379.2,278.8h-6.5v-6.3h6.5V278.8z"/>
</svg>